<svg width="69" height="70" viewBox="0 0 69 70" fill="none" xmlns="http://www.w3.org/2000/svg">
<path d="M21.1384 45.6206C20.7349 47.5795 20.6066 51.1177 22.0979 52.6263C23.5892 54.135 28.299 52.4622 31.1036 51.6784C31.0504 60.8782 18.0084 68.1029 12.9998 69.574C13.5027 69.0769 14.6113 67.5832 15.0229 65.5856C12.0114 67.5682 3.01441 67.0162 0.0318095 63.9989C9.52876 64.5538 13.0894 54.0742 13.0923 53.5743C13.0952 53.0743 11.601 52.0656 9.0837 55.0511C10.1213 48.557 21.6529 43.1236 21.1384 45.6206Z" fill="url(#paint0_linear_2903_1977)"/>
<path d="M24.1355 46.1372C32.7047 34.1865 61.555 5.08839 68.9006 0.396064C67.5796 5.5529 40.1555 42.7297 28.6152 49.6631C25.6047 51.4718 23.9373 51.074 23.6095 50.6342C23.2817 50.1945 22.6182 49.1285 24.1355 46.1372Z" fill="url(#paint1_linear_2903_1977)"/>
<defs>
<linearGradient id="paint0_linear_2903_1977" x1="11.5" y1="67" x2="71.5" y2="11.5" gradientUnits="userSpaceOnUse">
<stop stop-color="#1DECDF"/>
<stop offset="1" stop-color="#011627"/>
</linearGradient>
<linearGradient id="paint1_linear_2903_1977" x1="11.5" y1="67" x2="71.5" y2="11.5" gradientUnits="userSpaceOnUse">
<stop stop-color="#1DECDF"/>
<stop offset="1" stop-color="#011627"/>
</linearGradient>
</defs>
</svg>
